<svg xmlns="http://www.w3.org/2000/svg" width="500" height="400" viewBox="0 0 500 400">
  <defs>
    <linearGradient id="grad2" x1="0%" y1="0%" x2="100%" y2="100%">
      <stop offset="0%" style="stop-color:#667eea;stop-opacity:1" />
      <stop offset="100%" style="stop-color:#764ba2;stop-opacity:1" />
    </linearGradient>
  </defs>
  
  <!-- Background -->
  <rect width="500" height="400" fill="#f8fafc"/>
  
  <!-- Team collaboration illustration -->
  <circle cx="150" cy="150" r="60" fill="url(#grad2)" opacity="0.8"/>
  <circle cx="150" cy="140" r="25" fill="white"/>
  <path d="M 125 165 Q 150 180 175 165" fill="white"/>
  
  <circle cx="350" cy="150" r="60" fill="url(#grad2)" opacity="0.6"/>
  <circle cx="350" cy="140" r="25" fill="white"/>
  <path d="M 325 165 Q 350 180 375 165" fill="white"/>
  
  <circle cx="250" cy="280" r="60" fill="url(#grad2)" opacity="0.7"/>
  <circle cx="250" cy="270" r="25" fill="white"/>
  <path d="M 225 295 Q 250 310 275 295" fill="white"/>
  
  <!-- Connection lines -->
  <line x1="150" y1="200" x2="250" y2="230" stroke="#667eea" stroke-width="3" stroke-dasharray="5,5" opacity="0.5"/>
  <line x1="350" y1="200" x2="250" y2="230" stroke="#764ba2" stroke-width="3" stroke-dasharray="5,5" opacity="0.5"/>
  
  <!-- Decorative elements -->
  <rect x="50" y="50" width="80" height="10" rx="5" fill="#667eea" opacity="0.3"/>
  <rect x="370" y="50" width="80" height="10" rx="5" fill="#764ba2" opacity="0.3"/>
  <circle cx="100" cy="350" r="15" fill="#667eea" opacity="0.2"/>
  <circle cx="400" cy="350" r="20" fill="#764ba2" opacity="0.2"/>
</svg>
